#!OML:ASF E:\VariousWalksJay\Project 1\Capture day 1\Session 1\Actor2.ASF
:FULLY-SPECIFIED
:DEGREES
1076
root 4.81096 17.7498 -19.6068 180.14 -1.16042 -170.394
lowerback -11.3427 0.725193 1.30745
upperback -5.25583 -0.0354086 -6.80239
thorax 0.848675 -0.534687 -7.93561
lowerneck -4.14285 -6.70355 -8.68948
upperneck 7.72059 -13.802 26.2896
head 5.53834 -7.11756 8.81126
rclavicle -1.59028e-015 -9.54166e-015
rhumerus -32.8135 43.7542 -94.5647
rradius 49.8548
rwrist -0.20823
rhand 4.34019 -4.75446
rfingers 7.12502
rthumb 29.7404 -32.3884
lclavicle -1.59028e-015 -9.54166e-015
lhumerus -11.6759 -19.6894 70.9766
lradius 36.4549
lwrist 11.9121
lhand -12.3838 -7.73944
lfingers 7.12502
lthumb 13.6871 21.7905
rfemur 13.6891 2.96663 26.064
rtibia 31.6347
rfoot 14.6277 -3.85369
rtoes -3.68241
lfemur -7.21943 0.488546 -5.80424
ltibia 25.6878
lfoot -18.8095 2.50259
ltoes 1.34848
1077
root 4.79109 17.7445 -19.6639 180.361 -0.805751 -170.599
lowerback -11.1973 0.789653 1.25231
upperback -5.16601 0.0656239 -6.87823
thorax 0.878174 -0.478703 -7.97219
lowerneck -4.2087 -6.68233 -8.69719
upperneck 7.90205 -13.8006 26.238
head 5.60056 -7.10137 8.79414
rclavicle 5.56597e-015 -6.67916e-014
rhumerus -32.6098 43.8539 -94.5658
rradius 49.7757
rwrist -0.0700192
rhand 3.84352 -4.70368
rfingers 7.12502
rthumb 29.2663 -32.4213
lclavicle 5.56597e-015 -6.67916e-014
lhumerus -11.6444 -19.8675 71.2249
lradius 36.554
lwrist 12.087
lhand -12.3228 -7.74783
lfingers 7.12502
lthumb 13.7459 21.7781
rfemur 12.1908 3.40534 25.6924
rtibia 33.9595
rfoot 15.3189 -3.65002
rtoes -3.53075
lfemur -7.09229 0.914247 -6.07011
ltibia 25.6228
lfoot -18.9202 2.40743
ltoes 1.40228
1078
root 4.77093 17.74 -19.7182 180.608 -0.44163 -170.784
lowerback -11.0567 0.850984 1.22762
upperback -5.05588 0.165746 -6.93527
thorax 0.931705 -0.420098 -8.00668
lowerneck -4.27589 -6.65096 -8.69146
upperneck 8.0474 -13.7715 26.1789
head 5.6454 -7.07187 8.77492
rclavicle -8.74653e-015 6.99722e-014
rhumerus -32.4326 44.026 -94.5887
rradius 49.808
rwrist 0.0433016
rhand 3.61071 -4.62361
rfingers 7.12502
rthumb 29.044 -32.3798
lclavicle -8.74653e-015 6.99722e-014
lhumerus -11.6814 -20.0774 71.5068
lradius 36.6406
lwrist 12.2552
lhand -12.2213 -7.75375
lfingers 7.12502
lthumb 13.8437 21.7655
rfemur 10.5421 3.8713 25.34
rtibia 36.404
rfoot 16.1335 -3.41155
rtoes -3.58347
lfemur -6.99378 1.39422 -6.30864
ltibia 25.5382
lfoot -19.0009 2.25418
ltoes 1.46798
1079
root 4.75087 17.7363 -19.7696 180.869 -0.06592 -170.952
lowerback -10.9083 -0.30732 1.46252
upperback -5.07271 0.545895 -6.89268
thorax 0.871588 0.583464 -8.03718
lowerneck -4.33731 -6.61536 -8.67207
upperneck 8.16543 -13.726 26.1083
head 5.67598 -7.03497 8.75116
rclavicle -1.51076e-014 -6.36111e-015
rhumerus -32.2713 44.2288 -94.6164
rradius 49.9446
rwrist 0.120581
rhand 3.62422 -4.50851
rfingers 7.12502
rthumb 29.0569 -32.2625
lclavicle -1.51076e-014 -6.36111e-015
lhumerus -11.7794 -20.331 71.8122
lradius 36.7055
lwrist 12.4172
lhand -12.0778 -7.75306
lfingers 7.12502
lthumb 13.982 21.7567
rfemur 8.76313 4.37188 25.0098
rtibia 38.9436
rfoot 17.0391 -3.11854
rtoes -3.90707
lfemur -6.90148 1.92398 -6.52244
ltibia 25.4172
lfoot -19.0551 2.04987
ltoes 1.5511
1080
root 4.73116 17.7336 -19.8182 181.139 0.328909 -171.13
lowerback -10.7442 -0.225408 1.45103
upperback -4.91648 0.633542 -6.92793
thorax 0.959816 0.621919 -8.05678
lowerneck -4.40562 -6.58127 -8.62992
upperneck 8.28071 -13.6787 26.0164
head 5.70342 -6.99599 8.71558
rclavicle 2.14687e-014 -8.90555e-014
rhumerus -32.0963 44.4598 -94.6319
rradius 50.1672
rwrist 0.123423
rhand 3.85365 -4.36611
rfingers 7.12502
rthumb 29.276 -32.0821
lclavicle 2.14687e-014 -8.90555e-014
lhumerus -11.9326 -20.6109 72.1252
lradius 36.7438
lwrist 12.5722
lhand -11.89 -7.7445
lfingers 7.12502
lthumb 14.163 21.7527
rfemur 6.86805 4.91386 24.6746
rtibia 41.5536
rfoot 17.9564 -2.74264
rtoes -4.38492
lfemur -6.79852 2.49725 -6.74347
ltibia 25.2458
lfoot -19.0856 1.81146
ltoes 1.66169
1081
root 4.71191 17.7317 -19.8643 181.401 0.733717 -171.342
lowerback -10.5473 -0.155617 1.40975
upperback -4.73634 0.705931 -6.96238
thorax 1.05283 0.652751 -8.0598
lowerneck -4.5072 -9.36704 -8.34833
upperneck 9.74243 -13.3344 25.2551
head 6.07632 -4.69491 8.64038
rclavicle -3.33958e-014 1.01778e-013
rhumerus -31.901 44.702 -94.6359
rradius 50.4597
rwrist 0.0397879
rhand 4.26464 -4.20514
rfingers 7.12502
rthumb 29.6683 -31.852
lclavicle -3.33958e-014 1.01778e-013
lhumerus -12.1351 -20.8903 72.4326
lradius 36.7488
lwrist 12.7234
lhand -11.6751 -7.72964
lfingers 7.12502
lthumb 14.3701 21.753
rfemur 4.88712 5.47905 24.3074
rtibia 44.2085
rfoot 18.7762 -2.27007
rtoes -4.95445
lfemur -6.66516 3.0993 -7.00049
ltibia 25.0146
lfoot -19.09 1.54959
ltoes 1.78132
1082
root 4.69384 17.7304 -19.908 181.65 1.15283 -171.599
lowerback -10.3108 -0.0996641 1.31862
upperback -4.53708 0.763925 -6.99891
thorax 1.14157 0.676878 -8.03756
lowerneck -4.59494 -9.31596 -8.26399
upperneck 9.8837 -13.2979 25.1355
head 6.11241 -4.67619 8.58633
rclavicle 0 -6.36111e-015
rhumerus -31.687 44.934 -94.6298
rradius 50.8051
rwrist -0.139979
rhand 4.79543 -4.04778
rfingers 7.12502
rthumb 30.1748 -31.6032
lclavicle 0 -6.36111e-015
lhumerus -12.3838 -21.153 72.7306
lradius 36.7154
lwrist 12.8698
lhand -11.4378 -7.69294
lfingers 7.12502
lthumb 14.5987 21.7733
rfemur 2.83911 6.06915 23.9019
rtibia 46.8819
rfoot 19.3659 -1.72203
rtoes -5.52715
lfemur -6.49218 3.71625 -7.30647
ltibia 24.7183
lfoot -19.0648 1.28804
ltoes 1.89862
